REM DIRINDEX 1\2\4,1\2\5,1\2\6,1\3\7,1\3\8,1\3\9,1\3\10
REM DIRNAME cjc057,folder01,folder02,folder03,folder04,folder05,folder06,folder07,folder08,folder09
TITLE ""
FILE "b_045.mp3" MP3
  TRACK 01 AUDIO
    TITLE "0:"
    INDEX 01 00:00:00
  TRACK 02 AUDIO
    TITLE "7:cjc057_05552"
    INDEX 01 00:00:15
  TRACK 03 AUDIO
    TITLE "0:"
    INDEX 01 00:01:30
  TRACK 04 AUDIO
    TITLE "8:cjc057_05553"
    INDEX 01 00:01:58
  TRACK 05 AUDIO
    TITLE "0:"
    INDEX 01 00:03:12
  TRACK 06 AUDIO
    TITLE "9:cjc057_05554"
    INDEX 01 00:03:53
  TRACK 07 AUDIO
    TITLE "0:"
    INDEX 01 00:07:25
  TRACK 08 AUDIO
    TITLE "7:cjc057_05555"
    INDEX 01 00:08:30
  TRACK 09 AUDIO
    TITLE "0:"
    INDEX 01 00:09:53
  TRACK 10 AUDIO
    TITLE "8:cjc057_05556"
    INDEX 01 00:10:08
  TRACK 11 AUDIO
    TITLE "0:"
    INDEX 01 00:11:40
  TRACK 12 AUDIO
    TITLE "9:cjc057_05557"
    INDEX 01 00:12:07
  TRACK 13 AUDIO
    TITLE "0:"
    INDEX 01 00:16:28
  TRACK 14 AUDIO
    TITLE "7:cjc057_05558"
    INDEX 01 00:17:29
  TRACK 15 AUDIO
    TITLE "0:"
    INDEX 01 00:18:31
  TRACK 16 AUDIO
    TITLE "8:cjc057_05559"
    INDEX 01 00:18:60
  TRACK 17 AUDIO
    TITLE "0:"
    INDEX 01 00:20:30
  TRACK 18 AUDIO
    TITLE "9:cjc057_05560"
    INDEX 01 00:20:69
  TRACK 19 AUDIO
    TITLE "0:"
    INDEX 01 00:23:73
  TRACK 20 AUDIO
    TITLE "7:cjc057_05561"
    INDEX 01 00:25:03
  TRACK 21 AUDIO
    TITLE "0:"
    INDEX 01 00:26:07
  TRACK 22 AUDIO
    TITLE "8:cjc057_05562"
    INDEX 01 00:26:38
  TRACK 23 AUDIO
    TITLE "0:"
    INDEX 01 00:28:10
  TRACK 24 AUDIO
    TITLE "9:cjc057_05563"
    INDEX 01 00:28:51
  TRACK 25 AUDIO
    TITLE "0:"
    INDEX 01 00:32:70
  TRACK 26 AUDIO
    TITLE "7:cjc057_05564"
    INDEX 01 00:34:02
  TRACK 27 AUDIO
    TITLE "0:"
    INDEX 01 00:35:19
  TRACK 28 AUDIO
    TITLE "8:cjc057_05565"
    INDEX 01 00:35:47
  TRACK 29 AUDIO
    TITLE "0:"
    INDEX 01 00:37:24
  TRACK 30 AUDIO
    TITLE "9:cjc057_05566"
    INDEX 01 00:37:65
  TRACK 31 AUDIO
    TITLE "0:"
    INDEX 01 00:40:19
  TRACK 32 AUDIO
    TITLE "7:cjc057_05567"
    INDEX 01 00:41:24
  TRACK 33 AUDIO
    TITLE "0:"
    INDEX 01 00:42:39
  TRACK 34 AUDIO
    TITLE "8:cjc057_05568"
    INDEX 01 00:42:68
  TRACK 35 AUDIO
    TITLE "0:"
    INDEX 01 00:45:04
  TRACK 36 AUDIO
    TITLE "9:cjc057_05569"
    INDEX 01 00:45:45
  TRACK 37 AUDIO
    TITLE "0:"
    INDEX 01 00:48:73
  TRACK 38 AUDIO
    TITLE "7:cjc057_05570"
    INDEX 01 00:50:03
  TRACK 39 AUDIO
    TITLE "0:"
    INDEX 01 00:51:09
  TRACK 40 AUDIO
    TITLE "8:cjc057_05571"
    INDEX 01 00:51:38
  TRACK 41 AUDIO
    TITLE "0:"
    INDEX 01 00:53:00
  TRACK 42 AUDIO
    TITLE "9:cjc057_05572"
    INDEX 01 00:53:41
  TRACK 43 AUDIO
    TITLE "0:"
    INDEX 01 00:55:57
  TRACK 44 AUDIO
    TITLE "7:cjc057_05573"
    INDEX 01 00:56:63
  TRACK 45 AUDIO
    TITLE "0:"
    INDEX 01 00:58:17
  TRACK 46 AUDIO
    TITLE "8:cjc057_05574"
    INDEX 01 00:58:46
  TRACK 47 AUDIO
    TITLE "0:"
    INDEX 01 01:00:00
  TRACK 48 AUDIO
    TITLE "9:cjc057_05575"
    INDEX 01 01:00:43
  TRACK 49 AUDIO
    TITLE "0:"
    INDEX 01 01:03:33
  TRACK 50 AUDIO
    TITLE "7:cjc057_05576"
    INDEX 01 01:04:37
  TRACK 51 AUDIO
    TITLE "0:"
    INDEX 01 01:05:42
  TRACK 52 AUDIO
    TITLE "8:cjc057_05577"
    INDEX 01 01:05:73
  TRACK 53 AUDIO
    TITLE "0:"
    INDEX 01 01:06:73
  TRACK 54 AUDIO
    TITLE "9:cjc057_05578"
    INDEX 01 01:07:37
  TRACK 55 AUDIO
    TITLE "0:"
    INDEX 01 01:11:09
  TRACK 56 AUDIO
    TITLE "7:cjc057_05579"
    INDEX 01 01:12:15
  TRACK 57 AUDIO
    TITLE "0:"
    INDEX 01 01:13:34
  TRACK 58 AUDIO
    TITLE "8:cjc057_05580"
    INDEX 01 01:13:65
  TRACK 59 AUDIO
    TITLE "0:"
    INDEX 01 01:16:16
  TRACK 60 AUDIO
    TITLE "9:cjc057_05581"
    INDEX 01 01:16:58
  TRACK 61 AUDIO
    TITLE "0:"
    INDEX 01 01:19:70
